<svg width="512" height="512" viewBox="0 0 512 512" fill="none" xmlns="http://www.w3.org/2000/svg">
  <defs>
    <linearGradient id="rose_gradient" x1="0" y1="0" x2="512" y2="512" gradientUnits="userSpaceOnUse">
      <stop stop-color="#ec4899" />
      <stop offset="1" stop-color="#be185d" />
    </linearGradient>
    <filter id="shadow" x="-50" y="-50" width="612" height="612" filterUnits="userSpaceOnUse">
      <feDropShadow dx="0" dy="8" stdDeviation="16" flood-color="#be185d" flood-opacity="0.3"/>
    </filter>
  </defs>

  <circle cx="256" cy="256" r="240" fill="url(#rose_gradient)" filter="url(#shadow)" />
  
  <g transform="translate(106, 126) scale(0.6)">
    <path d="M256 448l-26-24C106 308 32 240 32 152 32 80 88 24 160 24c41 0 80 19 96 50 16-31 55-50 96-50 72 0 128 56 128 128 0 88-74 156-198 272l-26 24z" fill="white" />
  </g>
  
  <path d="M380 110 L395 80 L425 110 L395 140 Z" fill="#fbcfe8" />
</svg>